G04 DipTrace 3.1.0.1*
G04 Top.gbr*
%MOIN*%
G04 #@! TF.FileFunction,Copper,L1,Top*
G04 #@! TF.Part,Single*
G04 #@! TA.AperFunction,Conductor*
%ADD14C,0.007008*%
%ADD16R,0.051181X0.059055*%
G04 #@! TA.AperFunction,ComponentPad*
%ADD17R,0.066929X0.066929*%
%ADD18C,0.066929*%
%ADD19R,0.070866X0.015748*%
G04 #@! TA.AperFunction,ViaPad*
%ADD20C,0.023622*%
%FSLAX26Y26*%
G04*
G70*
G90*
G75*
G01*
G04 Top*
%LPD*%
X749913Y481192D2*
D14*
X662234D1*
X587430Y606178D2*
Y624927D1*
X549934Y662423D1*
X593680Y828782D2*
X521060D1*
X518688Y831155D1*
X456194Y793690D2*
X481223D1*
X518688Y831155D1*
X587430Y606178D2*
Y599929D1*
X662423Y524937D1*
Y481381D1*
X662234Y481192D1*
X593680Y803192D2*
X540402D1*
X537436Y806157D1*
X662234Y606178D2*
Y662234D1*
X662423Y662423D1*
X824717Y481192D2*
Y537247D1*
X824906Y537436D1*
X749913Y662423D2*
Y606367D1*
X750102Y606178D1*
X593680Y854373D2*
X526717D1*
X518688Y862402D1*
X456194Y893690D2*
X487399D1*
X518688Y862402D1*
X587430Y481192D2*
Y531186D1*
X824906Y662423D2*
Y606178D1*
X593680Y931144D2*
X562433D1*
X524937Y968640D1*
Y1124948D1*
X456194Y1193690D1*
X593680Y905554D2*
X556777D1*
X506189Y956142D1*
Y1043696D1*
X456194Y1093690D1*
X593680Y879963D2*
X551121D1*
X481192Y949892D1*
Y968693D1*
X456194Y993690D1*
X822026Y931144D2*
X862402D1*
X887399Y956142D1*
Y1125034D1*
X956290Y1193925D1*
X822026Y905554D2*
X861808D1*
X906147Y949892D1*
Y1043782D1*
X956290Y1093925D1*
X822026Y879963D2*
X861215D1*
X931144Y949892D1*
Y968780D1*
X956290Y993925D1*
X822026Y854373D2*
X873121D1*
X906147Y887399D1*
X949764D1*
X956290Y893925D1*
X822026Y828782D2*
X921433D1*
X956290Y793925D1*
X822026Y803192D2*
X884115D1*
X906147Y781160D1*
Y744068D1*
X956290Y693925D1*
X822026Y777601D2*
X872210D1*
X887399Y762412D1*
Y718667D1*
X906147Y699919D1*
Y644068D1*
X956290Y593925D1*
X822034Y752010D2*
X860304D1*
X868651Y743664D1*
Y699919D1*
X887399Y681171D1*
Y562816D1*
X956290Y493925D1*
X593680Y777601D2*
X546375D1*
X506189Y737415D1*
Y643685D1*
X456194Y593690D1*
X593680Y752010D2*
X552031D1*
X524937Y724916D1*
Y562433D1*
X456194Y493690D1*
D20*
X824906Y537436D3*
X662423Y662423D3*
X537436Y806157D3*
X749913Y662423D3*
X518688Y862402D3*
X587430Y531186D3*
X549934Y662423D3*
X518688Y831155D3*
X824906Y662423D3*
D16*
X587430Y606178D3*
X662234D3*
X749913Y481192D3*
X824717D3*
X824906Y606178D3*
X750102D3*
D17*
X456194Y493690D3*
D18*
Y593690D3*
Y693690D3*
Y793690D3*
Y893690D3*
Y993690D3*
Y1093690D3*
Y1193690D3*
D17*
X956290Y1193925D3*
D18*
Y1093925D3*
Y993925D3*
Y893925D3*
Y793925D3*
Y693925D3*
Y593925D3*
Y493925D3*
D16*
X587430Y481192D3*
X662234D3*
D19*
X593680Y931144D3*
Y905554D3*
Y879963D3*
Y854373D3*
Y828782D3*
Y803192D3*
Y777601D3*
Y752010D3*
X822034D3*
X822026Y777601D3*
Y803192D3*
Y828782D3*
Y854373D3*
Y879963D3*
Y905554D3*
Y931144D3*
M02*
