G04 DipTrace 3.1.0.1*
G04 TopAssy.gbr*
%MOIN*%
G04 #@! TF.FileFunction,Drawing,Top*
G04 #@! TF.Part,Single*
%ADD10C,0.009843*%
%ADD35C,0.003088*%
%FSLAX26Y26*%
G04*
G70*
G90*
G75*
G01*
G04 TopAssy*
%LPD*%
X396355Y424793D2*
D10*
Y1262588D1*
X1016129Y1262823D2*
Y425028D1*
X358056Y744280D2*
D35*
X378152D1*
X378153Y752902D1*
X377180Y755776D1*
X376229Y756727D1*
X374328Y757677D1*
X371454D1*
X369530Y756727D1*
X368580Y755776D1*
X367629Y752902D1*
X366656Y755776D1*
X365706Y756727D1*
X363805Y757677D1*
X361881D1*
X359980Y756727D1*
X359007Y755776D1*
X358056Y752902D1*
Y744280D1*
X367629D2*
Y752902D1*
X358057Y769601D2*
X359007Y767678D1*
X360931Y765776D1*
X362832Y764804D1*
X365706Y763853D1*
X370503D1*
X373355Y764804D1*
X375278Y765776D1*
X377180Y767678D1*
X378152Y769601D1*
Y773426D1*
X377180Y775327D1*
X375278Y777250D1*
X373355Y778201D1*
X370503Y779152D1*
X365706D1*
X362832Y778201D1*
X360931Y777250D1*
X359007Y775327D1*
X358057Y773426D1*
Y769601D1*
X378152Y800648D2*
X358056Y792977D1*
X378152Y785327D1*
X371454Y788201D2*
Y797774D1*
X367629Y806824D2*
Y815424D1*
X366656Y818298D1*
X365706Y819270D1*
X363805Y820221D1*
X361881D1*
X359980Y819270D1*
X359007Y818298D1*
X358056Y815424D1*
Y806824D1*
X378152D1*
X367629Y813522D2*
X378152Y820221D1*
X358056Y826397D2*
X378152D1*
Y833095D1*
X377180Y835969D1*
X375278Y837893D1*
X373355Y838843D1*
X370503Y839794D1*
X365706D1*
X362832Y838843D1*
X360930Y837893D1*
X359007Y835969D1*
X358056Y833095D1*
Y826397D1*
Y877835D2*
Y865410D1*
X378152D1*
Y877835D1*
X367629Y865410D2*
Y873059D1*
X358056Y884010D2*
X378152D1*
Y890709D1*
X377180Y893583D1*
X375278Y895506D1*
X373355Y896457D1*
X370503Y897408D1*
X365706D1*
X362832Y896457D1*
X360930Y895506D1*
X359007Y893583D1*
X358056Y890709D1*
Y884010D1*
X362832Y917931D2*
X360930Y916981D1*
X359007Y915057D1*
X358056Y913156D1*
Y909331D1*
X359007Y907408D1*
X360930Y905507D1*
X362832Y904534D1*
X365706Y903583D1*
X370503D1*
X373355Y904534D1*
X375278Y905507D1*
X377180Y907408D1*
X378152Y909331D1*
Y913156D1*
X377180Y915057D1*
X375278Y916981D1*
X373355Y917931D1*
X370503D1*
Y913156D1*
X358056Y936532D2*
Y924107D1*
X378152D1*
Y936532D1*
X367629Y924107D2*
Y931756D1*
X1054428Y943335D2*
X1034332D1*
Y934713D1*
X1035304Y931839D1*
X1036255Y930889D1*
X1038156Y929938D1*
X1041030D1*
X1042954Y930889D1*
X1043904Y931839D1*
X1044855Y934713D1*
X1045828Y931839D1*
X1046778Y930889D1*
X1048680Y929938D1*
X1050603D1*
X1052504Y930889D1*
X1053477Y931839D1*
X1054428Y934713D1*
Y943335D1*
X1044855D2*
Y934713D1*
X1054428Y918014D2*
X1053477Y919938D1*
X1051554Y921839D1*
X1049652Y922812D1*
X1046778Y923763D1*
X1041981D1*
X1039129Y922812D1*
X1037206Y921839D1*
X1035305Y919938D1*
X1034332Y918015D1*
Y914190D1*
X1035305Y912289D1*
X1037206Y910365D1*
X1039129Y909415D1*
X1041981Y908464D1*
X1046778D1*
X1049652Y909415D1*
X1051554Y910365D1*
X1053477Y912289D1*
X1054428Y914190D1*
Y918014D1*
X1034332Y886968D2*
X1054428Y894639D1*
X1034332Y902288D1*
X1041030Y899414D2*
Y889842D1*
X1044855Y880792D2*
Y872192D1*
X1045828Y869318D1*
X1046778Y868345D1*
X1048680Y867395D1*
X1050603D1*
X1052504Y868345D1*
X1053477Y869318D1*
X1054428Y872192D1*
Y880792D1*
X1034332D1*
X1044855Y874093D2*
X1034332Y867395D1*
X1054428Y861219D2*
X1034332D1*
Y854520D1*
X1035305Y851646D1*
X1037206Y849723D1*
X1039129Y848772D1*
X1041981Y847821D1*
X1046778D1*
X1049652Y848772D1*
X1051554Y849723D1*
X1053477Y851646D1*
X1054428Y854520D1*
Y861219D1*
Y809781D2*
Y822205D1*
X1034332D1*
Y809781D1*
X1044855Y822205D2*
Y814556D1*
X1054428Y803605D2*
X1034332D1*
Y796906D1*
X1035305Y794032D1*
X1037206Y792109D1*
X1039129Y791158D1*
X1041981Y790208D1*
X1046778D1*
X1049653Y791158D1*
X1051554Y792109D1*
X1053477Y794032D1*
X1054428Y796906D1*
Y803605D1*
X1049653Y769684D2*
X1051554Y770635D1*
X1053477Y772558D1*
X1054428Y774459D1*
Y778284D1*
X1053477Y780207D1*
X1051554Y782109D1*
X1049653Y783081D1*
X1046778Y784032D1*
X1041981D1*
X1039129Y783081D1*
X1037206Y782109D1*
X1035305Y780207D1*
X1034332Y778284D1*
Y774459D1*
X1035305Y772558D1*
X1037206Y770635D1*
X1039129Y769684D1*
X1041981D1*
Y774459D1*
X1054428Y751084D2*
Y763508D1*
X1034332D1*
Y751084D1*
X1044855Y763508D2*
Y755859D1*
M02*
