G04 DipTrace 3.1.0.1*
G04 TopSilk.gbr*
%MOIN*%
G04 #@! TF.FileFunction,Legend,Top*
G04 #@! TF.Part,Single*
%ADD10C,0.009843*%
%ADD34C,0.00772*%
%ADD35C,0.003088*%
%ADD36C,0.004632*%
%FSLAX26Y26*%
G04*
G70*
G90*
G75*
G01*
G04 TopSilk*
%LPD*%
X546071Y580608D2*
D10*
Y631749D1*
X708554Y455621D2*
Y506762D1*
X866265Y631749D2*
Y580608D1*
X406193Y443727D2*
X506194D1*
Y1243654D1*
X406193D1*
Y443727D1*
X1006292Y1243889D2*
X906290D1*
Y443962D1*
X1006292D1*
Y1243889D1*
X644871Y947877D2*
Y735278D1*
X770843Y947877D2*
Y735278D1*
X644871D2*
X770843D1*
X644871Y947877D2*
X688168D1*
X727546D2*
X770843D1*
X688168D2*
G03X727546Y947877I19689J23D01*
G01*
X621166Y696991D2*
D34*
X618790Y701744D1*
X613981Y706553D1*
X609228Y708929D1*
X599666D1*
X594858Y706553D1*
X590105Y701744D1*
X587673Y696991D1*
X585296Y689806D1*
Y677812D1*
X587673Y670683D1*
X590105Y665874D1*
X594858Y661121D1*
X599666Y658689D1*
X609228D1*
X613981Y661121D1*
X618790Y665874D1*
X621166Y670683D1*
X636605Y699312D2*
X641414Y701744D1*
X648599Y708874D1*
Y658689D1*
X772899Y572004D2*
X770523Y576757D1*
X765714Y581566D1*
X760961Y583942D1*
X751399D1*
X746591Y581566D1*
X741838Y576757D1*
X739406Y572004D1*
X737029Y564819D1*
Y552825D1*
X739406Y545696D1*
X741838Y540887D1*
X746591Y536134D1*
X751399Y533702D1*
X760961D1*
X765714Y536134D1*
X770523Y540887D1*
X772899Y545696D1*
X790770Y571949D2*
Y574325D1*
X793147Y579134D1*
X795523Y581510D1*
X800332Y583887D1*
X809893D1*
X814647Y581510D1*
X817023Y579134D1*
X819455Y574325D1*
Y569572D1*
X817023Y564764D1*
X812270Y557634D1*
X788338Y533702D1*
X821832D1*
X788857Y696991D2*
X786481Y701744D1*
X781672Y706553D1*
X776919Y708929D1*
X767357D1*
X762549Y706553D1*
X757796Y701744D1*
X755364Y696991D1*
X752987Y689806D1*
Y677812D1*
X755364Y670683D1*
X757796Y665874D1*
X762549Y661121D1*
X767357Y658689D1*
X776919D1*
X781672Y661121D1*
X786481Y665874D1*
X788857Y670683D1*
X809105Y708874D2*
X835358D1*
X821043Y689751D1*
X828228D1*
X832981Y687374D1*
X835358Y684997D1*
X837790Y677812D1*
Y673059D1*
X835358Y665874D1*
X830605Y661066D1*
X823420Y658689D1*
X816235D1*
X809105Y661066D1*
X806728Y663498D1*
X804296Y668251D1*
X594369Y560011D2*
X615869D1*
X623054Y562442D1*
X625486Y564819D1*
X627862Y569572D1*
Y574381D1*
X625486Y579134D1*
X623054Y581566D1*
X615869Y583942D1*
X594369D1*
Y533702D1*
X611116Y560011D2*
X627862Y533702D1*
X643302Y574325D2*
X648110Y576757D1*
X655295Y583887D1*
Y533702D1*
X694442Y986854D2*
D35*
Y972506D1*
X695392Y969632D1*
X697316Y967731D1*
X700190Y966758D1*
X702091D1*
X704965Y967731D1*
X706888Y969632D1*
X707839Y972506D1*
Y986854D1*
X714015Y983008D2*
X715938Y983980D1*
X718812Y986832D1*
Y966758D1*
X534591Y1246707D2*
D36*
Y1223759D1*
X533165Y1219448D1*
X531706Y1218022D1*
X528854Y1216563D1*
X525969D1*
X523117Y1218022D1*
X521691Y1219448D1*
X520232Y1223759D1*
Y1226611D1*
X543854Y1240937D2*
X546740Y1242396D1*
X551051Y1246674D1*
Y1216563D1*
X859557Y1246707D2*
Y1223759D1*
X858131Y1219448D1*
X856672Y1218022D1*
X853820Y1216563D1*
X850935D1*
X848083Y1218022D1*
X846657Y1219448D1*
X845198Y1223759D1*
Y1226611D1*
X870279Y1239511D2*
Y1240937D1*
X871705Y1243822D1*
X873131Y1245248D1*
X876016Y1246674D1*
X881753D1*
X884605Y1245248D1*
X886031Y1243822D1*
X887490Y1240937D1*
Y1238085D1*
X886031Y1235200D1*
X883179Y1230922D1*
X868820Y1216563D1*
X888916D1*
X674416Y1128300D2*
Y1158444D1*
X662942Y1128300D1*
X651468Y1158444D1*
Y1128300D1*
X706661D2*
X695154Y1158444D1*
X683680Y1128300D1*
X687991Y1138348D2*
X702350D1*
X725972Y1158444D2*
Y1128300D1*
X715924Y1158444D2*
X736020D1*
X755332D2*
Y1128300D1*
X745284Y1158444D2*
X765380D1*
X722472Y1104651D2*
X721013D1*
X719587Y1103192D1*
X718161Y1100340D1*
X715276Y1093177D1*
X712424Y1088866D1*
X709573Y1085981D1*
X706687Y1084555D1*
X700951D1*
X698099Y1085981D1*
X696639Y1087440D1*
X695214Y1090292D1*
Y1093177D1*
X696639Y1096029D1*
X698099Y1097455D1*
X708113Y1103192D1*
X709573Y1104651D1*
X710999Y1107503D1*
Y1110388D1*
X709573Y1113240D1*
X706687Y1114666D1*
X703836Y1113240D1*
X702376Y1110388D1*
Y1107503D1*
X703836Y1103192D1*
X706687Y1098914D1*
X713850Y1088866D1*
X716735Y1085981D1*
X719587Y1084555D1*
X722472D1*
X655701Y1034560D2*
X644194Y1064704D1*
X632720Y1034560D1*
X637031Y1044608D2*
X651390D1*
X664965Y1064704D2*
Y1043182D1*
X666391Y1038871D1*
X669276Y1036019D1*
X673587Y1034560D1*
X676439D1*
X680750Y1036019D1*
X683635Y1038871D1*
X685061Y1043182D1*
Y1064704D1*
X714420Y1060393D2*
X711568Y1063278D1*
X707257Y1064704D1*
X701520D1*
X697209Y1063278D1*
X694324Y1060393D1*
Y1057541D1*
X695783Y1054656D1*
X697209Y1053230D1*
X700061Y1051804D1*
X708683Y1048919D1*
X711568Y1047493D1*
X712994Y1046034D1*
X714420Y1043182D1*
Y1038871D1*
X711568Y1036019D1*
X707257Y1034560D1*
X701520D1*
X697209Y1036019D1*
X694324Y1038871D1*
X733732Y1064704D2*
Y1034560D1*
X723684Y1064704D2*
X743780D1*
X753043D2*
Y1034560D1*
X782403Y1064704D2*
Y1034560D1*
X762307Y1064704D1*
Y1034560D1*
M02*
